<?xml version="1.0" encoding="UTF-8"?>
<!DOCTYPE svg PUBLIC "-//W3C//DTD SVG 1.1//EN" "http://www.w3.org/Graphics/SVG/1.1/DTD/svg11.dtd">
<!-- Creator: CorelDRAW X8 -->
<svg xmlns="http://www.w3.org/2000/svg" xml:space="preserve" width="978px" height="978px" version="1.1" style="shape-rendering:geometricPrecision; text-rendering:geometricPrecision; image-rendering:optimizeQuality; fill-rule:evenodd; clip-rule:evenodd"
viewBox="0 0 978 978"
 xmlns:xlink="http://www.w3.org/1999/xlink">
 <defs>
  <style type="text/css">
   <![CDATA[
    .fil2 {fill:#004A00}
    .fil1 {fill:#004B00}
    .fil0 {fill:#A4DAB2}
   ]]>
  </style>
 </defs>
 <g id="Capa_x0020_1">
  <metadata id="CorelCorpID_0Corel-Layer"/>
  <g id="_2920749304704">
   <path class="fil0" d="M413 527c5,-2 206,-205 217,-216 23,-23 49,-50 72,-72 3,-3 8,-6 13,-3 3,2 7,6 9,9l54 54c42,41 46,38 24,59l-288 288c-29,29 -62,60 -91,89 -4,4 -7,9 -14,6 -4,-2 -21,-21 -25,-24l-72 -72c-6,-6 -12,-11 -18,-18l-19 -17c-2,-2 -3,-3 -5,-5l-23 -22c-8,-8 -18,-17 -27,-26l-28 -26c-7,-7 -10,-9 -14,-13 -2,-2 -3,-3 -5,-5 -1,-1 -8,-8 -8,-9 -4,-6 0,-11 3,-13l85 -87c5,-5 12,-14 22,-7l22 21c2,2 3,2 5,4l71 67c5,5 37,37 40,38zm76 406c55,0 111,-10 162,-31l66 -32c3,-2 5,-4 8,-5 15,-9 28,-19 41,-29 3,-2 5,-4 8,-6 1,-2 2,-2 3,-3l12 -10c9,-10 12,-11 24,-25 1,-1 2,-2 4,-3 13,-13 26,-32 36,-46 4,-6 8,-11 11,-17 6,-9 10,-18 16,-26 10,-17 23,-50 29,-69 31,-93 32,-189 1,-283 -18,-54 -46,-104 -83,-148 -2,-2 -2,-2 -3,-4l-14 -15c-13,-15 -45,-41 -62,-53 -19,-14 -39,-26 -60,-36l-28 -13c-6,-3 -13,-5 -20,-8 -42,-14 -91,-26 -137,-26 -50,0 -75,1 -124,13 -35,9 -67,23 -98,39 -18,9 -35,20 -52,31 -5,4 -10,8 -16,12l-22 19c-2,2 -2,2 -4,4 -6,5 -11,11 -17,17 -9,9 -18,19 -26,29 -10,13 -19,26 -28,40 -13,18 -26,43 -34,63 -20,49 -27,78 -35,131 -1,8 -3,46 -2,52l1 26c0,24 7,48 12,72 3,14 8,29 12,42 2,7 5,13 7,20 17,42 43,86 73,121 27,31 53,55 87,78l42 26c3,2 7,3 10,5 6,3 12,6 18,9 13,6 26,11 40,15 29,10 58,17 90,21 8,1 17,1 25,2l27 1z"/>
   <path class="fil1" d="M413 527c-3,-1 -35,-33 -40,-38l-71 -67c-2,-2 -3,-2 -5,-4l-22 -21c-10,-7 -17,2 -22,7l-85 87c-3,2 -7,7 -3,13 0,1 7,8 8,9 2,2 3,3 5,5 4,4 7,6 14,13l28 26c9,9 19,18 27,26l23 22c2,2 3,3 5,5l19 17c6,7 12,12 18,18l72 72c4,3 21,22 25,24 7,3 10,-2 14,-6 29,-29 62,-60 91,-89l288 -288c22,-21 18,-18 -24,-59l-54 -54c-2,-3 -6,-7 -9,-9 -5,-3 -10,0 -13,3 -23,22 -49,49 -72,72 -11,11 -212,214 -217,216z"/>
   <path class="fil2" d="M35 493c0,-73 13,-129 41,-193 11,-25 26,-49 41,-72 3,-6 7,-10 11,-16 10,-13 21,-26 33,-38 3,-3 4,-5 7,-8 2,-1 2,-1 4,-3l33 -29c19,-15 38,-28 59,-40l47 -23c39,-18 80,-27 123,-34 8,-1 18,-1 26,-2 8,-1 22,-1 31,-1 18,0 37,1 53,3 31,5 62,12 91,21l31 12c37,17 73,37 106,63 2,2 5,4 8,6 2,2 5,5 7,6l23 21c2,3 4,5 6,7 3,3 5,5 7,7 2,2 2,2 3,4l46 60c27,41 47,92 59,139 21,85 15,172 -13,254 -6,19 -15,41 -25,59 -2,3 -3,6 -5,9 -7,16 -17,30 -27,44 -3,6 -7,11 -11,16l-33 38c-3,3 -4,5 -7,8l-37 33c-21,16 -44,32 -68,44l-69 30c-48,16 -94,25 -150,25 -34,0 -68,-4 -100,-12 -26,-6 -50,-13 -74,-24 -4,-2 -7,-3 -10,-5 -13,-5 -25,-12 -38,-18 -12,-7 -22,-14 -34,-22 -6,-4 -11,-8 -16,-12l-42 -36c-9,-7 -16,-16 -24,-25 -14,-15 -31,-39 -42,-56 -44,-67 -71,-160 -71,-240zm-35 -4c0,61 11,122 34,179 2,4 3,7 5,11 1,3 3,7 4,10l10 21c13,26 29,51 47,75 9,11 18,23 28,34 2,2 5,4 8,7 9,11 20,21 30,30l9 7c11,9 22,19 35,27l52 32 26 12c14,7 28,12 43,18 32,10 65,18 100,22 36,4 79,5 115,0 34,-4 67,-11 99,-22 15,-5 30,-11 44,-17l41 -21c22,-12 44,-27 64,-43l25 -21c2,-2 4,-5 7,-8 8,-7 15,-15 23,-22l7 -8c8,-8 14,-17 21,-26 13,-18 25,-36 37,-55l20 -41c28,-65 44,-129 44,-201 0,-29 -3,-56 -7,-83 -2,-9 -4,-17 -5,-26 -4,-15 -9,-32 -14,-47 -3,-8 -5,-15 -8,-23l-19 -42c-13,-26 -29,-51 -47,-75 -2,-3 -4,-6 -7,-9l-21 -25c-2,-2 -5,-4 -8,-7 -9,-11 -20,-21 -30,-30l-26 -21c-19,-14 -39,-28 -60,-39 -25,-14 -51,-26 -79,-36 -109,-36 -229,-35 -337,8l-42 19c-20,10 -39,22 -57,34l-47 37c-2,2 -3,2 -5,4 -2,2 -4,5 -7,8 -12,10 -23,23 -34,35l-17 21c-14,19 -28,39 -39,60l-6 10c-12,22 -21,45 -30,69 -16,51 -26,103 -26,158z"/>
  </g>
 </g>
</svg>
